<svg xmlns="http://www.w3.org/2000/svg" viewBox="0 0 32 32">
  <!-- Sun behind cloud -->
  <circle cx="22" cy="10" r="6" fill="#FBBF24"/>
  <!-- Sun rays -->
  <g stroke="#FBBF24" stroke-width="2" stroke-linecap="round">
    <line x1="22" y1="1" x2="22" y2="3"/>
    <line x1="29" y1="4" x2="27.5" y2="5.5"/>
    <line x1="31" y1="10" x2="29" y2="10"/>
    <line x1="29" y1="16" x2="27.5" y2="14.5"/>
  </g>
  <!-- Cloud -->
  <path d="M8 28a5 5 0 0 1-.5-9.96 7 7 0 0 1 13.5-1.87A4.5 4.5 0 0 1 24.5 28H8z" fill="#3B82F6"/>
  <path d="M8 28a5 5 0 0 1-.5-9.96 7 7 0 0 1 13.5-1.87A4.5 4.5 0 0 1 24.5 28H8z" fill="url(#cloudGrad)"/>
  <defs>
    <linearGradient id="cloudGrad" x1="0%" y1="0%" x2="0%" y2="100%">
      <stop offset="0%" stop-color="#60A5FA"/>
      <stop offset="100%" stop-color="#3B82F6"/>
    </linearGradient>
  </defs>
</svg>
