<svg xmlns="http://www.w3.org/2000/svg" viewBox="0 0 32 32">
  <!-- Sun rays -->
  <g fill="#F59E0B">
    <rect x="14.5" y="1" width="3" height="5" rx="1.5"/>
    <rect x="14.5" y="26" width="3" height="5" rx="1.5"/>
    <rect x="1" y="14.5" width="5" height="3" rx="1.5"/>
    <rect x="26" y="14.5" width="5" height="3" rx="1.5"/>
    <rect x="5.1" y="5.1" width="3" height="5" rx="1.5" transform="rotate(45 6.6 7.6)"/>
    <rect x="23.9" y="21.9" width="3" height="5" rx="1.5" transform="rotate(45 25.4 24.4)"/>
    <rect x="5.1" y="21.9" width="3" height="5" rx="1.5" transform="rotate(-45 6.6 24.4)"/>
    <rect x="23.9" y="5.1" width="3" height="5" rx="1.5" transform="rotate(-45 25.4 7.6)"/>
  </g>
  <!-- Sun circle -->
  <circle cx="16" cy="16" r="7" fill="#FBBF24"/>
  <!-- Cloud -->
  <path d="M10 24c-2.2 0-4-1.8-4-4 0-1.9 1.3-3.4 3-3.9 0-.04 0-.07 0-.1 0-2.8 2.2-5 5-5 2.3 0 4.2 1.5 4.8 3.5.4-.1.8-.2 1.2-.2 2.2 0 4 1.8 4 4s-1.8 4-4 4H10z" fill="#60A5FA"/>
</svg>
